<?xml version="1.0" encoding="UTF-8"?>
<!DOCTYPE svg PUBLIC "-//W3C//DTD SVG 1.1//EN" "http://www.w3.org/Graphics/SVG/1.1/DTD/svg11.dtd">
<svg xmlns="http://www.w3.org/2000/svg" version="1.1" width="24px" height="24px" style="shape-rendering:geometricPrecision; text-rendering:geometricPrecision; image-rendering:optimizeQuality; fill-rule:evenodd; clip-rule:evenodd" xmlns:xlink="http://www.w3.org/1999/xlink">
<g><path style="opacity:0.978" fill="#888b97" d="M 6.5,2.5 C 9.83333,2.5 13.1667,2.5 16.5,2.5C 16.5,5.16667 16.5,7.83333 16.5,10.5C 17.8333,10.5 19.1667,10.5 20.5,10.5C 20.5,13.8333 20.5,17.1667 20.5,20.5C 17.8333,20.5 15.1667,20.5 12.5,20.5C 11.8333,15.1667 11.1667,15.1667 10.5,20.5C 7.83333,20.5 5.16667,20.5 2.5,20.5C 2.5,15.8333 2.5,11.1667 2.5,6.5C 3.83333,6.5 5.16667,6.5 6.5,6.5C 6.5,5.16667 6.5,3.83333 6.5,2.5 Z M 8.5,4.5 C 10.337,4.63945 10.6704,5.30612 9.5,6.5C 8.70245,6.04311 8.36912,5.37644 8.5,4.5 Z M 12.5,4.5 C 14.337,4.63945 14.6704,5.30612 13.5,6.5C 12.7025,6.04311 12.3691,5.37644 12.5,4.5 Z M 4.5,8.5 C 6.33702,8.63945 6.67036,9.30612 5.5,10.5C 4.70245,10.0431 4.36912,9.37644 4.5,8.5 Z M 8.5,8.5 C 10.337,8.63945 10.6704,9.30612 9.5,10.5C 8.70245,10.0431 8.36912,9.37644 8.5,8.5 Z M 12.5,8.5 C 14.337,8.63945 14.6704,9.30612 13.5,10.5C 12.7025,10.0431 12.3691,9.37644 12.5,8.5 Z M 4.5,12.5 C 6.33702,12.6395 6.67036,13.3061 5.5,14.5C 4.70245,14.0431 4.36912,13.3764 4.5,12.5 Z M 8.5,12.5 C 10.337,12.6395 10.6704,13.3061 9.5,14.5C 8.70245,14.0431 8.36912,13.3764 8.5,12.5 Z M 12.5,12.5 C 14.337,12.6395 14.6704,13.3061 13.5,14.5C 12.7025,14.0431 12.3691,13.3764 12.5,12.5 Z M 16.5,12.5 C 18.337,12.6395 18.6704,13.3061 17.5,14.5C 16.7025,14.0431 16.3691,13.3764 16.5,12.5 Z M 4.5,16.5 C 6.33702,16.6395 6.67036,17.3061 5.5,18.5C 4.70245,18.0431 4.36912,17.3764 4.5,16.5 Z M 16.5,16.5 C 18.337,16.6395 18.6704,17.3061 17.5,18.5C 16.7025,18.0431 16.3691,17.3764 16.5,16.5 Z"/></g>
</svg>
