<?xml version="1.0" encoding="UTF-8"?>
<!DOCTYPE svg PUBLIC "-//W3C//DTD SVG 1.1//EN" "http://www.w3.org/Graphics/SVG/1.1/DTD/svg11.dtd">
<svg xmlns="http://www.w3.org/2000/svg" version="1.1" width="24px" height="24px" style="shape-rendering:geometricPrecision; text-rendering:geometricPrecision; image-rendering:optimizeQuality; fill-rule:evenodd; clip-rule:evenodd" xmlns:xlink="http://www.w3.org/1999/xlink">
<g><path style="opacity:0.97" fill="#878a97" d="M 12.5,2.5 C 13.5,2.5 14.5,2.5 15.5,2.5C 15.5,4.83333 15.5,7.16667 15.5,9.5C 12.5525,9.22288 9.71914,9.55621 7,10.5C 6.50166,13.8168 6.33499,17.1501 6.5,20.5C 5.16667,20.5 3.83333,20.5 2.5,20.5C 2.17338,15.7863 2.50671,11.1196 3.5,6.5C 6.7686,5.53147 9.7686,4.19813 12.5,2.5 Z"/></g>
<g><path style="opacity:0.981" fill="#888a97" d="M 16.5,9.5 C 17.8333,9.5 19.1667,9.5 20.5,9.5C 20.5,13.1667 20.5,16.8333 20.5,20.5C 18.8333,20.5 17.1667,20.5 15.5,20.5C 14.8333,15.1667 14.1667,15.1667 13.5,20.5C 11.8333,20.5 10.1667,20.5 8.5,20.5C 8.5,17.5 8.5,14.5 8.5,11.5C 11.6981,12.0356 14.3647,11.369 16.5,9.5 Z"/></g>
</svg>
